<svg xmlns="http://www.w3.org/2000/svg" viewBox="0 0 1090.1 489">
  <g id="Layer_2" data-name="Layer 2">
    <g id="group">
      <path id="banner" d="M509.3,92.8c111.3,5.5,218.4-31.6,326.8-51.7,65-12.5,130.4-21.7,195.2-35.8,5.3-1,22.8-2.4,28-2.1,6.9-.4,11.9-8,16.7,1.7,10.4,79.3,2.3,162.8,10.2,243.1-4.3,16.2,19.8,181.8-16.3,129.3-7.1-23.8-81.3,15.6-99.7,6.7-105.1,6.1-212,29.6-315.3,53-39.6,9.5-80.2,16.3-119.3,27.4-47.5,11.4-103.6,40.8-149.5,13-29.2-57.4,122.8-86-64.3-57.2-81.5,16.7-164,28.5-245.2,46.7-28,5.4-86.8,27.4-73.5-21.9C-6.2,382.6,9,320.3,5.7,256.4c-1.4-44.3,1.9-88.3-3.2-132.3-1.6-6.5,10.6-3.2,8.6-10.5,9.4-9.8,30.5-8.7,45.2-12.3,88.1-26,178.5-44,269.8-59.6C377.1,25.8,635-14.5,509.3,92.8ZM1067,193.7c1.4-52.5-6.3-105.1-2.7-158.2,3.9-26-32.7-9.9-48.7-9.1C934.9,44.9,851.4,50.2,771,71.1,716.9,81,663.6,99.5,608.8,105.6c-55.1,1.3-178.8,26.2-78.5-54.7C493.8,17.7,356.9,55.8,306,65.1,221.9,76.9,140.7,96.5,59.3,117.5c-55.5,8.5-41.5,4.1-38.4,56.4,1.7,79.8,1.9,162.3-2.5,241.4-3,5.7-8.9-.3-3.9,13,3.9,9.7-.2,22.2,3.7,30.7,30-.8,57.8-12.1,88.4-17.2,71.3-15.5,143.9-25.4,215.5-40.8,30.5-2.1,60.5-10.5,91.1-10.6,22.2,5.4,18.7,35.2,3.9,46.8-81.7,72.4,129.2,6.7,155.2.8,118.5-28.1,237.9-51.6,358.5-69.1,45.2-2.6,103.3-11.9,139.9-16.8C1081.9,307.1,1066.9,244.4,1067,193.7Z"/>
    </g>
  </g>
</svg>
