<?xml version="1.0" encoding="utf-8"?>
<svg version="1.1" id="cart-object" xmlns="http://www.w3.org/2000/svg" xmlns:xlink="http://www.w3.org/1999/xlink" x="0px"
	 y="0px" viewBox="0 0 69.8 69.8" style="enable-background:new 0 0 69.8 69.8;" xml:space="preserve">
<style type="text/css">
	.st0{fill:none;}
</style>
<circle id="ellipse" class="st0" cx="34.9" cy="34.9" r="34.9"/>
<path id="cart" d="M27.9,45.4c-1.9,0-3.5,1.6-3.5,3.5s1.6,3.5,3.5,3.5s3.5-1.6,3.5-3.5l0,0c0-1.9-1.5-3.4-3.4-3.5H27.9z M17.5,17.5
	V21H21l6.2,13.2l-2.3,4.3c-0.3,0.5-0.5,1.1-0.5,1.7c0,1.9,1.6,3.5,3.5,3.5h21v-3.5H28.7c-0.3,0-0.5-0.2-0.5-0.5l0,0v-0.2l1.6-2.8h13
	c1.2,0,2.4-0.7,3-1.8l6.3-11.4c0.1-0.2,0.2-0.5,0.2-0.8c0-0.9-0.8-1.7-1.7-1.7H24.8l-1.6-3.5H17.5z M45.4,45.4
	c-1.9,0-3.5,1.6-3.5,3.5s1.6,3.5,3.5,3.5s3.5-1.6,3.5-3.5l0,0C48.9,47,47.3,45.4,45.4,45.4z"/>
</svg>
