<svg xmlns="http://www.w3.org/2000/svg" viewBox="0 0 322.5 324.3">
  <g id="Layer_2" data-name="Layer 2">
    <g id="icon_plus_group">
      <path id="circle" d="M188.5,324.3c-12.3-.5-23.7-.2-34.9-1.4s-21.5-4-32.3-6.1c-4.8-1-9.7-1.6-14.3-3.2s-11.1-5.3-16.9-7.4c-10.9-4-18.8-12.3-27.6-19.1-7-5.4-12.7-12.4-19.9-17.4s-11.9-13.1-16.4-20.3c-7.5-12.1-16.9-23.6-20-37.8C4,201.4,3.8,190.8,2.7,180.3S.8,162.1.2,153c-.3-4.7-.4-9.7.7-14.2C4.5,122.9,8.1,107.2,16,92.4A176,176,0,0,1,36.7,61.2c8.3-9.9,17-19.9,27-27.9,6.8-5.4,14.7-10.5,23.9-12.4A21.4,21.4,0,0,0,96,16.1c5.8-5.1,12.6-6.8,20-7.2,2.2-.2,4.3-1.6,6.5-1.8C135,5.7,147.6,4.5,160.1,3a49.2,49.2,0,0,0,10-2c7.1-2.3,13.8-.1,20.3,1.9,10.1,3.1,19.9,7.3,30,10.5s22.6,7.8,32.5,14.5S274.2,41.6,283,50.4c10.5,10.5,18.6,23.1,25.4,36.5s9.7,29.6,12.6,45c2.5,13.2,1.5,26.2-.3,39.3-1,7.3-3,14.5-4.3,21.7-1.6,9.1-2.8,18.2-4.7,27.2-1.2,5.4-3.4,10.6-4.8,16-2.7,10-9.2,17.9-14.2,26.6-3.1,5.4-5.7,11.2-9.2,16.3-2,3.1-5.1,5.6-8.1,7.8-8.8,6.3-17.9,12.1-26.5,18.6s-15.8,9.1-24.7,11.5-18.1,4.5-27.3,6.5A59.9,59.9,0,0,1,188.5,324.3Zm-6.8-290c.6,1.3,1.3,2.2,1.3,3s-.1,4.7-1.3,6.1-3.6.8-5.4.4c-5.5-1.4-10.8-3.4-16.4-4.7a50.7,50.7,0,0,0-10.3-1c-5.3.1-10.5.6-15.8,1-7.9.6-15.4,2.4-22.3,6.6-3.4,2.1-6.4,6.2-11.4,3.5-.5-.2-1.5.6-2.2.9C83.3,57.4,71,67.2,62.4,81.4c-4.4,7.2-9.9,13.8-14.3,21-3.2,5.3-4.8,11.4-8,16.6-7.1,11.6-9.5,24-7.8,37.4,1.3,9.7,2.3,19.3,3.5,29s3.6,19.9,8.7,28.8c6.7,11.7,12.9,23.6,22.6,33.5,8,8.3,16.2,16.2,26.6,21.3a110,110,0,0,0,18.3,7.1c10.6,2.9,21.2,6.2,32.1,7.6s21,.8,31.5.3c17.2-1,33.6-6.2,49.3-12.8,8.7-3.7,16.1-10.6,24.7-14.9,5.2-2.6,8.1-6.7,11-11a116.1,116.1,0,0,0,7-12.4c4.1-8.1,8.9-15.9,12-24.3,3.9-10.7,7.8-21.5,8.5-33.2.6-9.1,2.6-18,3.6-27a37.7,37.7,0,0,0-.8-11.6c-1.3-6.3-3.7-12.4-4.6-18.8a53.7,53.7,0,0,0-7.4-20.1c-3.3-5.6-5.7-11.8-9.4-17s-8.2-9.4-12.4-14.1c-1.3-1.5-2.6-4.4-3.8-4.3-5.4.4-7.9-3.7-11.6-6.3A130.3,130.3,0,0,0,224,45.8c-13.2-6.3-26.8-11.3-42.3-11.5Z"/>
      <path id="plus_symbol" d="M145.7,232.3c-4.4-.4-8.5-1-12.6-1.2-8.5-.3-11.9-4.9-11.7-13.4.6-17.9.4-35.8.5-53.8a6,6,0,0,0-.6-1.9c-7.6.8-15.2,1.5-22.8,2.6s-13.3,3.4-19.8,3c-4.7-.2-10.1-3.1-13.7-6.3s-2.6-9.3-.1-14.2c1.4-3,1.5-6.6,3-9.6a9,9,0,0,1,5-4.2c6.6-1.4,13.4-2.3,20.2-3.2,8.8-1.1,17.6-2.4,26.4-3.1,4.9-.3,4.8-3.9,5-6.9.7-8.4.1-17,1.6-25.3,1.1-6.2,4.5-12,7.2-17.8a4.1,4.1,0,0,1,3.7-1.8c7.8,2.6,16.4,4.6,20,13.1,1.6,3.7,1.7,8.3,1.6,12.4-.2,6.4-1.2,12.7-1.8,19-.4,3.4,2,4.2,4.4,3.8,10.5-1.6,20.9-3.7,31.4-5.2,2.9-.4,6.8-.2,9,1.5,4.5,3.5,9.1,2.4,13.8,1.7s7.5-1.2,10.4,2.8c1.2,1.7,3.7,2.6,5.7,3.6,4.9,2.4,6.6,7.2,8.6,11.7s.1,7.3-2.6,10.6c-4.1,5.1-10.1,5.3-15.5,6.6s-8.7.1-13.1.4c-2.2.2-4.3,1.1-6.8,1.7-2.1-4.5-5.6-5-10.7-4.1A271.1,271.1,0,0,1,163,158c-6.8.5-7.2.4-7.2,7-.1,9-.2,18,0,27s1.6,16.5.6,24.5c-.7,4.7-5.1,8.9-7.9,13.3A16.7,16.7,0,0,1,145.7,232.3Z"/>
    </g>
  </g>
</svg>
