<svg xmlns="http://www.w3.org/2000/svg" viewBox="0 0 161.3 160.2">
  <g id="Layer_2" data-name="Layer 2">
    <g id="Layer_1-2" data-name="Layer 1">
      <g id="S1L9Uu.tif">
        <path d="M138.9,29.8c-5.6,22.3-8.5,31.9,8.5,50.2,12,23.1,24.6,59.5-.8,77.8-23.9,9.8-42-14.2-64.8-16.6-21-2.5-40.7,19.7-60.8,8.7-22.2-9.7-26.1-39.6-15-59C18.9,73.5,53,80.7,60.6,58.6,54.9,34.2,74.3,1.8,101.4,0,118.2,1.8,139.8,9.8,138.9,29.8ZM103.7,6.9c-20.1.3-29.5,19.2-35.8,35.4-.1,11.1,7,25.6-6.1,32.3-13.6,13.7-40.3,8.4-50,26.6-8.9,44.5,16.5,46.9,50.8,31.5,26.2-10.7,47.3,13.1,71.7,16.4,35.3-8.8,11.4-58.6-3-77.5C109,47.6,154.2,12.8,103.7,6.9Z"/>
      </g>
    </g>
  </g>
</svg>
