<svg xmlns="http://www.w3.org/2000/svg" width="50" height="50" fill="#fff" viewBox="0 0 120.1 129.4">
  <g id="Layer_2" data-name="Layer 2">
    <g id="Layer_1-2" data-name="Layer 1">
      <path id="bubble" d="M58.1,0c63-.5,87.1,98.9,28.9,125.2C-6.8,155.9-37,6.4,58.1,0ZM6.1,62.6c-4.4,71,110.6,81.2,107.4,5.5C118.9-5.7,9.1-11.4,6.1,62.6ZM90.7,36.7C74.3,74.5,88.8,50.2,59.8,51.3c-8.9-7.3,9.7-15.3,6.3-25C64.5,13.7,88.4,33.5,90.7,36.7ZM69.5,42.9c7.1,6.6,10,1.4,11.8-5.7C72.3,32,71.3,32.5,69.5,42.9Z"/>
    </g>
  </g>
</svg>
