<svg xmlns="http://www.w3.org/2000/svg" viewBox="0 0 876.5 827.1">
  <g id="Layer_2" data-name="Layer 2">
    <g id="Layer_1-2" data-name="Layer 1">
      <path d="M873.9,215.5c-.5,60.3-11.1,125.2-9.2,187.8-1.6,21.5-5.7,43.3-3.2,64.8,1.8,6.1,2.5,12.2,6.7,18.5-5.3-1.6-1.4,3-4.1,8.7-4.4,13.1-23.9-.2-34,3-28.1,9.9-55.5,19.9-83.6,29.8,2.2,4.3,3.5,7.8,2.3,12.6C737,587.8,706.6,627.9,669,659.3c-56.1,55.8-130.9,96-212.2,80.2C360.5,727,261.1,706.8,204,620.5c-37.3-1.8-81.2,27.3-120,37.3-11.7,6.2-40,6.1-27.9-13.1-8.7-19.9-7-44.6-10.8-66.3C41.1,520,24.2,464.6,7.9,408.3c-21.3-43.6,3.3-45,39.5-56.2,24.3-15.7,105.9-16.1,105.3-44.8C204.4,118,453,45.1,616.6,133.6c25.8,20.3,53.5,40.5,75.9,64.8,14,7.6,22.2,36.7,34.2,40.3C748.3,239.7,897.7,170,873.9,215.5ZM14.7,383.3c30.3,82,49.2,171.8,55.2,258.8,77.8-26.4,155-54.3,233.2-80.3,83.9-31.4,74.4,11.2,40.3,68.3-2,8.5,13.4,1.6,18.2,1.8,23-3.8,45.9-7.4,68.1-14.4,137.6-35.5,274.5-94,406.4-135.7,3.6,4.8,4.1-3.8,8.3-2.1,6.9-6.9-2.5-29.8.7-42.4,2-53.5,4.1-106.7,8.7-159.9,4.6-85.6,24-57.6-82.5-31.9-109.7,27-218.7,57.1-328.8,81.2-24.1,6.6-75.5-.1-47.4-33.6,5.8-7.6,11.5-15,14.3-24C334,271.3,263.5,307.7,190.3,324c-41,14.8-83.2,22.8-124.7,35.6C52.8,363.4,39.2,366.2,27,371,23.4,375,20.5,383,14.7,383.3Zm156-70.1c42.4-4.4,245.2-94.7,254.6-46.1-.5,16.2-11.8,29-18.6,42.2,63.8,1.6,124.1-26.5,186.1-38.3,17.7-8.7,132.6-17.9,108-39.2-37-45.7-83.5-83.9-139.6-102.1-146.7-53.8-348.1,26-390.5,183.5ZM734.3,532c-40,14.8-408.7,159.5-407.2,107.3-8.3-28.3,59.1-87.8-3.4-63.1C291,589.7,244,596.5,218.5,613.6c61.8,89.9,179.1,103.1,278.9,113.2C555.7,726.7,609,697.1,649,656,687.2,624.3,729.6,582.2,734.3,532ZM395.8,41.9A116.5,116.5,0,0,1,397,10.7c13.3-8.8,40.5-16,54.4-5.5,10.7,10.6,4.2,25.3,5.5,38.1,28.6,26.2-.3,54.1-31.5,45.6C393.1,84.2,397.6,68.5,395.8,41.9Zm34.9,30.6c6.8-.7,12.8-3.1,19.1-5.5,21.3-21-76.7-6.1-19.1,5.5Zm-19.5-31c8-.6,12.2-5.8,18.3-9.9s15.9-1,13.9-10.1c-4.6-8.2-23,2.5-31.6,3.2s.5,10-.6,16.8ZM113.3,239.3c-4-17.4-11.8-32.5-20-48.1,17.7-25.3,68.6,14,89.2,26.8-2.8,33.5-50.9-25.7-60.9-15,7.1,11.4,8.2,25.2,14.8,36.6,6.3,16-20.6,13.5-30.5,14.4,8.4,9.1,26.8,9.1,33.3,19.9-3.4,21.6-50-13.6-60.7-19C44.2,232.4,98.7,240.5,113.3,239.3Zm110-110.6c5,9.9,38.3,33.6,9.2,31.4A400.3,400.3,0,0,1,189,113.4c5-21.4,10.6-49.2,44.4-36.8,16.4,6.7,8,25.5,9.4,39.1,14,4.1,31.9,3.5,42.4,15C296.7,152,234.2,127.4,223.3,128.7Zm0-37.6c-9.2,4-11.4,13.2-13.9,21.3-2.3,3.6,8.5,8.1,10.8,11.8-.4-3.8-4.2-7.8.1-10.7C225.7,107.9,222.3,98.4,223.3,91.1Zm36.6-22.8C238.8,57,267.7,30,282.1,30.1c6.2.6,17,7.4,10.4,13.8-12.2,6.7-16.9,23.6-31.5,25.2,25.1,20.3,13.9,7.8,34.6-3.9,6.8-2.5,6.2,3.1,9.5,6,6.8,8.1-5.6,17.6-10.5,23.8s4.8,12.5,9.8,8.9c9.8-5.2,40.4-11.7,34.9,6.7-14.3,4.7-41.6,26.5-51.4,6.2C284.2,104.2,227.4,68.9,259.9,68.3ZM641,105.8c-2.3,10-15.2,35.8-21.6,14.3,7.6-18.1,14.3-37.4,23.5-54.7,7.8-.9,14.6-6.4,22.8-5.6C680,63.2,700.2,87.5,685,99.2c-52.2,8.5,8.9,18.9-5.9,52.4C671.4,162.5,651.2,110.3,641,105.8ZM674.6,86c-8.1-15.9-27.2-4.4-28.8,9.6C654.8,93.5,665.1,88.8,674.6,86ZM606,756.7c11.2.9,27-20,34.7-7.5,2.3,4.6,2.9,8.7-2,12.2-8,8.8-29.4,7.6-25.2,22.1,8.6,8.5,32-24.4,41.2-9.5,2.5,16-33.1,33.6-47.8,32.2-11.7-6.2-2.2-24.1-9.7-33.7-.8-9.6-11.9-17.4-9-27.3,3.9-14.6,23.5-17.6,33.6-27.8,6.7-5.3,14.8,10.1,8.7,14.2C625,741,600.9,744.6,606,756.7ZM576,27.6c11.4,2.6,34.8-.8,39.5,13.6,3.5,6.1-1.3,12-8.1,10.1s-28.7-9.8-31.3.6,17,5,23,11c14.2,19.9-17.8,12.9-28.4,15.3,5.5,10.8,22.1,17.3,32.4,24.9,14.8,31.8-46.2-5.8-49.4-16.5C556.3,70.1,556.2,29.4,576,27.6ZM189.2,197c-38.3,3.7-66.2-51.7-27-65.5C213.8,118.1,231.2,195.7,189.2,197Zm-9.4-15.4c14.2.9,17.5-31.9,4-35.6C161.7,141.5,156,181.1,179.8,181.6ZM507.7,41.4c11.4.3,27.8-2.8,26.5,13.6-5.3,11.6-42.9-3.2-30.6,16.5,8,7.7,34.9.2,29.1,16.7-12.8,13.3-38.2,1.3-45.9-13.1-2.1-20.6,4.7-42.3,13.1-60.7,12.6-.9,36.7-3.2,44.8,7.5s-4.8,14-14.6,12.2C520.6,33.9,510.6,28.9,507.7,41.4Zm225.5,635c9.2,0,20.6-8.3,27.1.7,7.5,18.4-24.4,15.1-35.3,17.3-1.8,4.1,16.9,18.8,2.6,21.3-11.2-.6-13.2-14-19.3-21-5.4-8.6-19.9-12.5-18.2-24.7.3-1.9,1-2.5,3.2-2.4,8.3,1.2-2-12.5,4-17.4C716.1,623.4,745.6,653,733.2,676.4Zm-16.9,6.1c-2.9-8.7,3.4-18.2,3.7-26.9C706.8,657.9,711.4,674.6,716.3,682.5ZM298.5,734.2c-11.3,16.9-38-10.5-45.4,5.5,7.4,3.8,20.1,2.5,22.8,13.6,1.2,8.7-10.2,5.2-15.3,4.6-33.8-5.7-6,21.5,10.9,24.8,16.1,11.4-5.4,17.9-15.4,10.2-36.2-11.8-29.4-55.4-8-77.4C264.2,719.9,290.3,718.5,298.5,734.2Zm483.7-56.9c-.8-10.8,11.2-11.6,18-17.1,7-11.6-74.6-5.4-50.4-51.5,6-5.6,14.6-15,23.5-12,5.1,2.9,11.6,11,4.4,14.8S761.4,618.7,761,627c9.9,14.3,34.7,5.4,47.2,17.5,6.3,5.8,19.8,18.1,10.3,25.6C808.9,675.3,789.1,693.1,782.2,677.3ZM656,696.6c6.6-33.4,51.5,17.2,62.6,28.6,2.8,5.5.2,10.7-6.5,10.5-8.3-1.2-11.6-12.5-18.2-17.3-1.9,8.5-14.1,12.7-11.4,16.4.5,4.2,5.9,6.3,5.2,10.4s-3.2,7.1-7.3,5.7c-12.4-1.1-12.8-18.1-19.2-26.4C658.2,716.6,631.2,690.2,656,696.6Zm16,6.8c-2,10.7,4.4,13.1,11.3,5.2-4.1-1.9-6.5-5.6-11.3-5.2Zm63.2-562c13.3,31.4,26.5,75-25.2,48.6-5.5-4.1-6.8-13.1-2.9-18.1,6.3-2.4,11.1,3,17.3,3.9,17.6,8.5,2.2-12.7-.2-20.4-20.6-36.3,31.1-45.8,38.9-17.8C761.4,152.6,744.1,137.9,735.2,141.4ZM540.8,777.3c-11.5,2.8-34,17.4-31.7-5,12.6-15.2,40.2-13.3,58-22.5,25.2-2.1,5.3,22-9.3,22.4-7.5,1.3,3.1,42,2.7,48.6C538.7,835.4,545.2,788.8,540.8,777.3ZM347.9,795.4c-44-44.4-9.7-85.8,12.9-50,.7,3.5-1.5,5.7-5.4,5.5-37.4-4.6,3,32.4,5,47.4,10.7,28.2-59.4,7.4-40.8-9.9C329.4,787.8,338,796.2,347.9,795.4Zm40,31.7c-10.2.2-32.4-.9-24.9-16.4,8.9-4.3,22.7,3.8,33.2-.6s-13-15.7-15.7-22.2c-9.2-11.7-8.8-36.8,10.3-37.8,8.8-2,15.6,10.7,10.6,17.4-3,3.1-11.4-5.4-13.8,2.7C388.7,788.1,445.5,819.8,387.9,827.1ZM191.5,720.2c9,7.2,32.5,34.4,14.5,40.2-11.5-1.8-8.5-18.4-17.6-23.9s-22.6-7.6-16.8-21.4c11.9-9.2,36.1-59.8,49.1-33.5C220.9,695,197.3,706,191.5,720.2ZM114.8,548.7l-4.7-25.3,7.7-1.4-13-69.4-7.7,1.5-4.7-25.3,92.2-17.3,7.4,39.9-27.3,5.2L162,441.9l-14,2.6,4.8,25.6,23.2-4.3,3.3,17.5-23.2,4.4,4.9,26.2,20.2-3.8,4.7,25.3Zm109.5-33.6c-12.1-7.9-20.1-22.7-24.2-44.4s-1.9-38.4,6.5-50.2,21.9-19.5,40.8-23,34.2-1.3,46.3,6.7,20.1,22.7,24.2,44.4,1.9,38.4-6.5,50.2-22,19.4-40.8,23S236.4,523.1,224.3,515.1Zm48.5-25c1.4-2.2,1.8-5.2,1-9.1l-8.7-46.6q-1.1-5.8-4.2-8.1c-2.1-1.6-4.9-2-8.4-1.3s-6,2-7.4,4.2-1.7,5.2-1,9.1l8.8,46.6c.7,4,2.1,6.7,4.2,8.2s4.9,1.9,8.4,1.2S271.4,492.3,272.8,490.1Zm73.6,2.2c-12.1-8-20.1-22.8-24.2-44.5s-1.9-38.4,6.5-50.2,21.9-19.4,40.7-22.9,34.3-1.4,46.4,6.6,20.1,22.8,24.2,44.4,1.9,38.5-6.5,50.2-22,19.5-40.8,23S358.5,500.2,346.4,492.3Zm48.5-25.1c1.4-2.2,1.8-5.2,1-9.1l-8.7-46.6q-1.1-5.8-4.2-8.1c-2.1-1.5-4.9-2-8.4-1.3s-6,2.1-7.4,4.2-1.7,5.3-1,9.2L375,462c.7,4,2.1,6.8,4.2,8.2s4.9,1.9,8.4,1.3S393.5,469.4,394.9,467.2Zm56.8-7.8,7.7-1.4-13-69.4-7.7,1.5L434,364.8l70.7-13.3c12.9-2.4,23.4-1.6,31.6,2.3s13.1,10.7,15,20.5a26.9,26.9,0,0,1-1.5,16.1,29.5,29.5,0,0,1-8.3,11.3,41.3,41.3,0,0,1-10.4,6.3l.3,1.6a42.7,42.7,0,0,1,21,3.2c6.6,2.8,10.9,9.3,12.7,19.3s-.5,19.5-7.7,26-17.3,11-30.2,13.4l-70.8,13.2Zm50.9-55.1c3-.6,5.1-1.8,6.3-3.7s1.5-4.5.8-7.9l-1-5.5c-.6-3.4-1.9-5.8-3.6-7.1s-4.2-1.7-7.2-1.1l-8.3,1.6,4.7,25.2Zm9.4,43.9c3-.6,5-1.8,6.2-3.7s1.5-4.5.9-7.9l-1.3-6.8c-.6-3.4-1.8-5.7-3.6-7s-4.2-1.7-7.2-1.2l-9.4,1.8,5,26.5Zm172.3-32.3,6.2-1.2,4.7,25.3-60.4,11.3L630.1,426l9.2-1.7-4.8-11.9-20.9,4-.2,12.8,9.3-1.8,4.7,25.3-52.7,9.9-4.8-25.3,6.2-1.2,8.3-99.5,56.1-10.5Zm-70.4-16.5,14.2-2.7L616,367.2l-1.5.3Zm81.5,14.4,7.7-1.4-13-69.4-7.7,1.4-4.7-25.3,70.7-13.2c13.3-2.5,23.9-1.7,31.9,2.5s13.2,12.3,15.5,24.5a37.6,37.6,0,0,1-.8,18.7,22.5,22.5,0,0,1-9.9,12.7l.4,1.5c10.2-.3,16.2,4.8,18.2,15.4l2.2,11.9,7.3-1.4,4.7,25.3-48.8,9.2-6.8-36.3c-.8-4-1.9-6.9-3.5-8.7a9.1,9.1,0,0,0-6.3-3.1,37.8,37.8,0,0,0-10.9.9l4.7,25.3,10.2-1.9,4.7,25.2-61,11.5Zm51-55.2c2.9-.5,5-1.7,6.2-3.6s1.5-4.5.9-7.9l-1.1-5.6c-.6-3.4-1.8-5.7-3.6-7s-4.2-1.7-7.2-1.2l-8.3,1.6,4.7,25.3Z"/>
    </g>
  </g>
</svg>
